# Blender 4.1.1
# www.blender.org
mtllib finray_gripper_15_visual.mtl
o finray_gripper.001
v 0.008863 0.000000 0.003939
v 0.008430 0.012000 0.001482
v 0.008863 0.012000 0.003939
v 0.008430 0.000000 0.001482
v 0.000000 0.000000 0.005502
v 0.008430 0.007622 0.001482
v 0.000000 0.012000 0.005502
v -0.000433 0.000000 0.003045
v -0.000433 0.012000 0.003045
v 0.000000 0.012000 0.005502
v 0.008863 0.012000 0.003939
v 0.000000 0.000000 0.005502
v 0.008863 0.000000 0.003939
v 0.008169 0.012000 -0.000000
v 0.008169 0.000000 0.000000
v 0.052800 0.012000 -0.000000
v 0.052800 0.000000 0.000000
v 0.016801 0.000000 0.015491
v 0.014583 0.000000 0.015164
v 0.019040 0.000000 0.015600
v 0.012407 0.000000 0.014623
v 0.010294 0.000000 0.013872
v 0.008264 0.000000 0.012919
v 0.044000 0.000000 0.012600
v 0.052800 0.000000 0.015600
v 0.049800 0.000000 0.012600
v 0.052800 0.000000 0.010600
v 0.049800 0.000000 0.010600
v 0.006337 0.000000 0.011773
v 0.044000 0.000000 0.003000
v 0.004530 0.000000 0.010445
v 0.002862 0.000000 0.008948
v 0.001347 0.000000 0.007295
v 0.049800 0.000000 0.003000
v 0.052800 0.000000 0.005000
v 0.049800 0.000000 0.005000
v 0.052800 0.012000 0.010600
v 0.049800 0.012000 0.010600
v 0.052800 0.012000 0.015600
v 0.001347 0.012000 0.007295
v 0.002862 0.012000 0.008948
v 0.004530 0.012000 0.010445
v 0.006337 0.012000 0.011773
v 0.044000 0.012000 0.012600
v 0.044000 0.012000 0.003000
v 0.008264 0.012000 0.012919
v 0.019040 0.012000 0.015600
v 0.010294 0.012000 0.013872
v 0.012407 0.012000 0.014623
v 0.014583 0.012000 0.015164
v 0.016801 0.012000 0.015491
v 0.049800 0.012000 0.012600
v 0.049800 0.012000 0.003000
v 0.049800 0.012000 0.005000
v 0.052800 0.012000 0.005000
v 0.008430 0.012000 0.001482
v 0.008430 0.000000 0.001482
v 0.008430 0.007622 0.001482
vn 0.9847 -0.0000 -0.1740
vn -0.0000 1.0000 -0.0000
vn -0.9848 -0.0000 0.1736
vn -0.0000 -1.0000 -0.0000
vn 0.1737 -0.0000 0.9848
vn -0.1737 -0.0000 -0.9848
vn -0.7727 0.5566 -0.3051
vn -0.3494 0.9045 -0.2446
vn -0.7729 -0.5564 -0.3051
vn -0.7727 -0.5566 -0.3051
vn -0.3492 0.9045 -0.2447
vn -0.3493 -0.9045 -0.2447
vn -0.4541 -0.3015 -0.8384
vn -0.6677 -0.0702 -0.7411
vn -0.3499 -0.9036 -0.2472
vn -0.3497 -0.9040 -0.2458
vn -0.1497 -0.4328 0.8890
vn -0.6304 0.5665 -0.5308
vn -0.6301 -0.5687 -0.5288
vn -0.5257 -0.8483 0.0632
vn -0.6301 0.5687 -0.5287
vn 0.5774 0.5774 -0.5773
vn -0.6301 -0.5687 -0.5287
vn 0.5774 0.5773 -0.5773
vn 0.5773 -0.5774 -0.5774
vn -0.0699 -0.6963 0.7143
vn -0.1391 -0.6963 0.7041
vn -0.0174 -0.7016 0.7123
vn -0.2070 -0.6963 0.6872
vn -0.2730 -0.6963 0.6639
vn -0.2730 -0.6963 0.6638
vn -0.3364 -0.6962 0.6341
vn -0.3363 -0.6963 0.6341
vn 0.3015 -0.9045 -0.3015
vn 0.5774 -0.5774 0.5773
vn 0.5773 -0.5774 0.5773
vn -0.3015 -0.9045 -0.3015
vn 0.5773 -0.5774 -0.5773
vn -0.5774 -0.5774 -0.5773
vn -0.3965 -0.6963 0.5983
vn -0.3964 -0.6963 0.5984
vn -0.3493 -0.9045 -0.2446
vn 0.3015 -0.9045 0.3015
vn -0.3493 -0.9046 -0.2445
vn -0.2795 -0.9045 -0.3220
vn -0.6300 -0.5687 -0.5289
vn -0.3966 -0.6963 0.5983
vn -0.4528 -0.6963 0.5569
vn -0.5049 -0.6963 0.5102
vn -0.5523 -0.6962 0.4586
vn -0.3015 -0.9045 0.3015
vn 0.5774 -0.5774 0.5772
vn -0.5773 -0.5774 0.5774
vn -0.5773 0.5774 -0.5774
vn 0.5773 0.5773 0.5774
vn 0.5773 0.5774 0.5774
vn 0.5773 -0.5773 -0.5774
vn -0.5523 0.6962 0.4586
vn -0.3493 0.9045 -0.2446
vn -0.5522 0.6962 0.4587
vn -0.5049 0.6963 0.5102
vn -0.4528 0.6962 0.5570
vn -0.3963 0.6963 0.5984
vn -0.3964 0.6963 0.5984
vn 0.3015 0.9045 -0.3015
vn 0.3015 0.9045 0.3015
vn -0.3363 0.6963 0.6341
vn -0.0174 0.7016 0.7123
vn -0.0173 0.7016 0.7123
vn -0.2729 0.6963 0.6638
vn -0.2729 0.6962 0.6639
vn -0.2070 0.6963 0.6873
vn -0.2070 0.6963 0.6872
vn -0.1391 0.6963 0.7041
vn -0.0699 0.6963 0.7143
vn -0.0174 0.7017 0.7123
vn 0.5773 0.5774 0.5773
vn -0.3015 0.9045 -0.3015
vn 0.5774 0.5774 -0.5772
vn -0.3015 0.9045 0.3015
vn 0.5773 0.5774 -0.5773
vn -0.6301 0.5687 -0.5288
vn -0.8060 0.5687 0.1641
vn -0.3493 0.9046 -0.2445
vn -0.5774 0.5774 0.5773
vn -0.3016 -0.9045 0.3015
vn -0.3016 0.9045 0.3015
vn 0.3015 -0.9045 0.3016
vn -0.3015 -0.9045 0.3016
vn 0.3014 0.9045 0.3016
vn 0.3015 0.9045 0.3016
vn -0.3014 -0.9045 0.3016
vn -0.3015 0.9045 0.3016
vn 0.3016 -0.9045 -0.3015
vn 0.3016 -0.9045 0.3015
vn 0.3016 0.9045 -0.3014
vn 0.3016 0.9045 -0.3015
vn 0.3016 -0.9045 0.3014
vn 0.3016 0.9045 0.3015
vn -0.3015 -0.9045 -0.3016
vn 0.3015 -0.9045 -0.3016
vn -0.3014 0.9045 -0.3016
vn -0.3015 0.9045 -0.3016
vn 0.3014 -0.9045 -0.3016
vn 0.3015 0.9045 -0.3016
vn -0.3016 -0.9045 -0.3015
vn -0.3016 0.9045 -0.3015
vn -0.0174 -0.7017 0.7123
vn -0.0176 0.7017 0.7123
vn -0.7728 0.5565 -0.3050
vn -0.7728 -0.5565 -0.3051
vn -0.5522 0.6964 0.4584
vn -0.5521 0.6963 0.4586
vn -0.7728 -0.5566 -0.3050
vn -0.5521 -0.6963 0.4585
vn -0.5521 0.6963 0.4585
vn -0.5049 0.6964 0.5100
vn -0.5047 0.6963 0.5103
vn -0.5521 -0.6963 0.4586
vn -0.5049 -0.6963 0.5101
vn -0.5048 0.6963 0.5102
vn -0.4528 0.6964 0.5568
vn -0.4528 0.6963 0.5569
vn -0.5047 -0.6964 0.5102
vn -0.4528 -0.6964 0.5568
vn -0.3964 0.6964 0.5982
vn -0.3964 -0.6964 0.5982
vn -0.3963 0.6964 0.5983
vn -0.3362 0.6963 0.6341
vn -0.3963 -0.6964 0.5983
vn -0.3363 -0.6964 0.6340
vn -0.2728 0.6964 0.6638
vn -0.2729 -0.6963 0.6638
vn -0.2729 0.6964 0.6638
vn -0.2729 -0.6964 0.6637
vn -0.2728 -0.6964 0.6638
vn -0.2072 -0.6963 0.6872
vn -0.1391 0.6964 0.7040
vn -0.1391 -0.6964 0.7040
vn -0.1392 -0.6963 0.7041
vn -0.0700 0.6963 0.7143
vn -0.1389 -0.6964 0.7041
vn -0.0173 0.7017 0.7123
vn -0.5156 -0.8482 0.1214
vn -0.3494 0.9045 -0.2448
vn -0.6304 0.5659 -0.5313
vt 0.375000 0.000000
vt 0.625000 0.000000
vt 0.625000 0.158785
vt 0.625000 0.250000
vt 0.375000 0.250000
vt 0.625000 0.500000
vt 0.375000 0.500000
vt 0.625000 0.750000
vt 0.375000 0.750000
vt 0.625000 1.000000
vt 0.375000 1.000000
vt 0.125000 0.500000
vt 0.125000 0.750000
vt 0.875000 0.500000
vt 0.875000 0.591215
vt 0.875000 0.750000
vt 0.000000 0.000000
vt 1.000000 0.000000
vt 1.000000 1.000000
s 0
f 1/1/1 4/2/1 6/3/1 2/4/1 3/5/1
f 3/5/2 2/4/2 9/6/2 7/7/2
f 7/7/3 9/6/3 8/8/3 5/9/3
f 5/9/4 8/8/4 4/10/4 1/11/4
f 3/12/5 7/7/5 5/9/5 1/13/5
f 9/6/6 2/14/6 6/15/6 4/16/6 8/8/6
f 10/17/7 11/18/8 12/19/9
f 12/17/10 11/18/11 13/19/12
f 11/17/8 56/17/13 58/17/14 13/17/15
f 13/17/16 58/17/17 14/17/18 15/17/19 57/17/20
f 14/17/21 16/17/22 15/17/23
f 15/17/23 16/17/24 17/17/25
f 18/17/26 19/17/27 20/17/28
f 20/17/28 19/17/27 21/17/29
f 20/17/28 21/17/29 22/17/30
f 22/17/31 23/17/32 20/17/28
f 20/17/28 23/17/33 24/17/34
f 20/17/28 24/17/34 25/17/35
f 25/17/36 24/17/34 26/17/37
f 25/17/36 26/17/37 27/17/38
f 27/17/25 26/17/37 28/17/39
f 23/17/33 29/17/40 24/17/34
f 24/17/34 29/17/41 13/17/42
f 24/17/34 13/17/42 30/17/43
f 30/17/43 13/17/44 57/17/45 15/17/46
f 30/17/43 15/17/19 17/17/25
f 29/17/47 31/17/48 13/17/42
f 13/17/42 31/17/48 32/17/49
f 13/17/42 32/17/49 33/17/50
f 33/17/50 12/17/10 13/17/42
f 30/17/43 17/17/38 34/17/51
f 34/17/51 17/17/38 35/17/52
f 34/17/51 35/17/35 36/17/53
f 27/17/25 28/17/39 37/17/22
f 37/17/22 28/17/39 38/17/54
f 25/17/35 27/17/25 39/17/55
f 39/17/56 27/17/57 37/17/22
f 10/17/7 40/17/58 11/17/59
f 11/17/59 40/17/60 41/17/61
f 11/17/59 41/17/61 42/17/62
f 42/17/62 43/17/63 11/17/59
f 11/17/59 43/17/64 44/17/65
f 11/17/59 44/17/65 45/17/66
f 43/17/64 46/17/67 44/17/65
f 44/17/65 46/17/67 47/17/68
f 44/17/65 47/17/69 39/17/56
f 46/17/67 48/17/70 47/17/68
f 47/17/68 48/17/71 49/17/72
f 47/17/68 49/17/73 50/17/74
f 50/17/74 51/17/75 47/17/76
f 44/17/65 39/17/77 52/17/78
f 52/17/78 39/17/77 37/17/79
f 52/17/78 37/17/22 38/17/54
f 53/17/80 16/17/81 45/17/66
f 45/17/66 16/17/22 14/17/82
f 45/17/66 14/17/21 56/17/83 11/17/84
f 54/17/85 55/17/56 53/17/80
f 53/17/80 55/17/77 16/17/81
f 35/17/35 17/17/25 55/17/55
f 55/17/56 17/17/57 16/17/22
f 36/17/53 35/17/35 54/17/85
f 54/17/85 35/17/35 55/17/56
f 34/17/86 36/17/53 53/17/87
f 53/17/87 36/17/53 54/17/85
f 30/17/88 34/17/89 45/17/90
f 45/17/91 34/17/92 53/17/93
f 24/17/94 30/17/95 44/17/96
f 44/17/97 30/17/98 45/17/99
f 26/17/100 24/17/101 52/17/102
f 52/17/103 24/17/104 44/17/105
f 28/17/39 26/17/106 38/17/54
f 38/17/54 26/17/106 52/17/107
f 20/17/108 25/17/35 47/17/76
f 47/17/109 25/17/35 39/17/56
f 10/17/110 12/17/111 40/17/112
f 40/17/113 12/17/114 33/17/115
f 40/17/116 33/17/115 41/17/117
f 41/17/118 33/17/119 32/17/120
f 41/17/121 32/17/49 42/17/122
f 42/17/123 32/17/124 31/17/125
f 42/17/123 31/17/125 43/17/126
f 43/17/126 31/17/48 29/17/127
f 43/17/128 29/17/127 46/17/67
f 46/17/129 29/17/130 23/17/131
f 46/17/67 23/17/33 48/17/70
f 48/17/132 23/17/33 22/17/133
f 48/17/134 22/17/135 49/17/73
f 49/17/73 22/17/136 21/17/29
f 49/17/73 21/17/137 50/17/138
f 50/17/138 21/17/29 19/17/139
f 50/17/74 19/17/140 51/17/141
f 51/17/75 19/17/142 18/17/26
f 51/17/75 18/17/26 47/17/76
f 47/17/143 18/17/26 20/17/108
f 58/17/144 56/17/145 14/17/146
