# Blender 4.1.1
# www.blender.org
mtllib finray_gripper_15_collision_0.mtl
o finray_gripper.001
v 0.008863 -0.000000 0.003939
v 0.008430 0.012000 0.001482
v 0.008863 0.012000 0.003939
v 0.008430 -0.000000 0.001482
v 0.000000 -0.000000 0.005502
v 0.008430 0.007622 0.001482
v 0.000000 0.012000 0.005502
v -0.000433 -0.000000 0.003045
v -0.000433 0.012000 0.003045
vn 0.9848 -0.0000 -0.1737
vn -0.0000 1.0000 -0.0000
vn -0.9848 -0.0000 0.1737
vn -0.0000 -1.0000 -0.0000
vn 0.1737 -0.0000 0.9848
vn -0.1737 -0.0000 -0.9848
vt 0.375000 0.000000
vt 0.625000 0.000000
vt 0.625000 0.158785
vt 0.625000 0.250000
vt 0.375000 0.250000
vt 0.625000 0.500000
vt 0.375000 0.500000
vt 0.625000 0.750000
vt 0.375000 0.750000
vt 0.625000 1.000000
vt 0.375000 1.000000
vt 0.125000 0.500000
vt 0.125000 0.750000
vt 0.875000 0.500000
vt 0.875000 0.591215
vt 0.875000 0.750000
s 0
f 1/1/1 4/2/1 6/3/1 2/4/1 3/5/1
f 3/5/2 2/4/2 9/6/2 7/7/2
f 7/7/3 9/6/3 8/8/3 5/9/3
f 5/9/4 8/8/4 4/10/4 1/11/4
f 3/12/5 7/7/5 5/9/5 1/13/5
f 9/6/6 2/14/6 6/15/6 4/16/6 8/8/6
