# Blender 4.1.1
# www.blender.org
mtllib finray_gripper_chamf_collision_0.mtl
o finray_gripper.001
v 0.000000 0.000000 0.005502
v 0.008863 -0.000000 0.003939
v 0.008863 0.012000 0.003939
v 0.000000 -0.000000 0.005502
v 0.000000 0.012000 0.005502
v 0.008430 -0.000000 0.001475
v 0.008430 0.012000 0.001475
v -0.000325 -0.000000 0.003648
v -0.000325 0.012000 0.003648
vn 0.9849 -0.0000 -0.1730
vn -0.0000 1.0000 -0.0000
vn -0.9850 -0.0000 0.1728
vn -0.0000 -1.0000 -0.0000
vn 0.1737 -0.0000 0.9848
vn -0.2408 -0.0000 -0.9706
vt 0.375000 0.000000
vt 0.625000 0.000000
vt 0.625000 0.250000
vt 0.375000 0.250000
vt 0.582634 0.500000
vt 0.375000 0.500000
vt 0.582634 0.750000
vt 0.375000 0.750000
vt 0.625000 1.000000
vt 0.375000 1.000000
vt 0.125000 0.500000
vt 0.125000 0.750000
vt 0.875000 0.500000
vt 0.875000 0.750000
s 0
f 2/1/1 6/2/1 7/3/1 3/4/1
f 3/4/2 7/3/2 9/5/2 5/6/2
f 5/6/3 9/5/3 8/7/3 4/8/3
f 4/8/4 8/7/4 6/9/4 2/10/4
f 3/11/5 5/6/5 4/8/5 2/12/5
f 9/5/6 7/13/6 6/14/6 8/7/6
