# Blender 4.2.1 LTS
# www.blender.org
mtllib RJ45_Male_collision_7.mtl
o RJ45_Male_collision_7
v -0.005500 0.027000 0.003500
v -0.004479 0.042000 0.002487
v -0.005500 0.027000 -0.003500
v -0.004512 0.042000 -0.002495
v 0.005500 0.027000 0.003500
v 0.004514 0.042000 0.002425
v 0.005500 0.027000 -0.003500
v 0.004448 0.042000 -0.002464
vn -0.9978 0.0668 0.0027
vn 0.0015 0.0679 -0.9977
vn 0.9977 0.0678 -0.0056
vn 0.0031 0.0694 0.9976
vn -0.0000 -1.0000 -0.0000
vn -0.0000 1.0000 -0.0000
vt 0.375000 0.000000
vt 0.626028 0.037586
vt 0.625036 0.237460
vt 0.375000 0.250000
vt 0.636091 0.523920
vt 0.375000 0.500000
vt 0.636213 0.724967
vt 0.375000 0.750000
vt 0.625000 0.973443
vt 0.375000 1.000000
vt 0.125000 0.500000
vt 0.125000 0.750000
vt 0.852533 0.535877
vt 0.851803 0.713806
s 0
f 1/1/1 2/2/1 4/3/1 3/4/1
f 3/4/2 4/3/2 8/5/2 7/6/2
f 7/6/3 8/5/3 6/7/3 5/8/3
f 5/8/4 6/7/4 2/9/4 1/10/4
f 3/11/5 7/6/5 5/8/5 1/12/5
f 8/5/6 4/13/6 2/14/6 6/7/6
