v 0.00728600 0.00000400 -0.00801200
v -0.00731400 0.00000400 -0.00801200
v 0.00728600 0.02600400 -0.00801200
v -0.00731400 0.02600400 -0.00801200
v -0.00411400 0.02600400 -0.00551200
v -0.00211400 0.02600400 -0.00551200
v -0.00211400 0.02600400 -0.00701200
v 0.00208600 0.02600400 -0.00551200
v 0.00408600 0.02600400 -0.00551200
v 0.00588600 0.02600400 -0.00401200
v 0.00408600 0.02600400 -0.00401200
v -0.00591400 0.02600400 -0.00401200
v -0.00411400 0.02600400 -0.00401200
v 0.00208600 0.02600400 -0.00701200
v 0.00728600 0.00000400 0.00798800
v -0.00731400 0.00000400 0.00798800
v -0.00591400 0.01600400 -0.00401200
v -0.00591400 0.01400400 0.00298800
v 0.00588600 0.01400400 0.00298800
v 0.00588600 0.01400400 -0.00301200
v 0.00408600 0.01400400 -0.00301200
v -0.00411400 0.01400400 -0.00301200
v -0.00411400 0.01400400 -0.00411200
v 0.00408600 0.01400400 -0.00411200
v -0.00411400 0.02300400 -0.00501200
v -0.00651400 0.02300400 -0.00501200
v -0.00411400 0.02300400 -0.00551200
v -0.00651400 0.02300400 -0.00701200
v -0.00211400 0.02300400 -0.00551200
v -0.00211400 0.02300400 -0.00701200
v -0.00411400 0.01600400 -0.00401200
v 0.00648600 0.02300400 -0.00501200
v 0.00648600 0.02300400 -0.00701200
v 0.00648600 0.01300400 -0.00401200
v 0.00648600 0.01300400 -0.00701200
v -0.00651400 0.01300400 -0.00701200
v 0.00208600 0.02300400 -0.00701200
v -0.00651400 0.01300400 -0.00401200
v 0.00208600 0.02300400 -0.00551200
v 0.00408600 0.02300400 -0.00551200
v 0.00408600 0.02300400 -0.00501200
v 0.00408600 0.01600400 -0.00401200
vn -0.00000000 -0.70710000 -0.70710000
vn -0.00000000 -0.70710000 -0.70710000
vn -0.00000000 0.61780000 -0.78640000
vn -0.00000000 0.61780000 -0.78640000
vn 0.30150000 0.90450000 0.30150000
vn 0.57730000 0.57740000 0.57740000
vn 0.30150000 0.90450000 0.30150000
vn -0.57740000 0.57730000 0.57740000
vn -0.30150000 0.90450000 0.30150000
vn -0.00000000 0.80760000 0.58970000
vn -0.57730000 0.57740000 0.57740000
vn -0.00000000 0.77190000 0.63570000
vn 0.57730000 0.57740000 0.57730000
vn -0.30150000 0.90450000 0.30150000
vn -0.00000000 -1.00000000 -0.00000000
vn -0.00000000 -1.00000000 -0.00000000
vn -0.00000000 -0.00000000 1.00000000
vn -0.00000000 1.00000000 -0.00000000
vn -0.00000000 1.00000000 -0.00000000
vn -0.00000000 1.00000000 -0.00000000
vn -0.00000000 1.00000000 -0.00000000
vn -0.00000000 1.00000000 -0.00000000
vn 0.03100000 0.22870000 -0.97300000
vn -0.03100000 0.22870000 -0.97300000
vn 0.89260000 -0.33420000 -0.30250000
vn 0.58280000 -0.60250000 -0.54530000
vn 0.30150000 -0.90450000 0.30150000
vn 0.57740000 -0.57730000 0.57740000
vn 0.57740000 -0.57730000 0.57740000
vn 0.30150000 -0.30150000 0.90450000
vn 0.89150000 -0.00000000 0.45300000
vn -0.58280000 -0.60250000 -0.54530000
vn -0.57730000 -0.57740000 0.57740000
vn -0.57230000 0.55030000 -0.60800000
vn -0.57740000 0.57740000 0.57740000
vn 0.57740000 0.57740000 0.57730000
vn -0.30150000 -0.30150000 0.90450000
vn 0.57230000 0.55030000 -0.60800000
vn -0.57730000 -0.57740000 0.57740000
vn -0.30150000 -0.90450000 0.30150000
vn -0.89260000 -0.33420000 -0.30250000
vn -0.99830000 -0.00000000 0.05750000
f 1//1 2//2 3//3
f 3//3 2//2 4//4
f 5//5 6//6 7//7
f 8//8 9//9 3//3
f 10//10 3//3 9//9
f 10//10 9//9 11//11
f 4//4 12//12 13//13
f 13//13 5//5 4//4
f 4//4 5//5 7//7
f 4//4 7//7 3//3
f 3//3 7//7 14//14
f 3//3 14//14 8//8
f 15//15 16//16 1//1
f 1//1 16//16 2//2
f 19//19 20//20 18//18
f 18//18 20//20 21//21
f 22//22 18//18 21//21
f 22//22 21//21 23//23
f 23//23 21//21 24//24
f 25//25 26//26 27//27
f 27//27 26//26 28//28
f 27//27 28//28 29//29
f 29//29 28//28 30//30
f 6//6 5//5 29//29
f 29//29 5//5 27//27
f 31//31 13//13 17//17
f 17//17 13//13 12//12
f 32//32 33//33 34//34
f 34//34 33//33 35//35
f 35//35 33//33 36//36
f 36//36 33//33 37//37
f 28//28 36//36 30//30
f 30//30 36//36 37//37
f 30//30 37//37 7//7
f 7//7 37//37 14//14
f 28//28 26//26 36//36
f 36//36 26//26 38//38
f 39//39 37//37 40//40
f 40//40 37//37 33//33
f 40//40 33//33 41//41
f 41//41 33//33 32//32
f 42//42 10//10 11//11
f 25//25 27//27 5//5
f 31//31 23//23 25//25
f 31//31 25//25 13//13
f 13//13 25//25 5//5
f 9//9 40//40 11//11
f 11//11 40//40 41//41
f 11//11 41//41 42//42
f 42//42 41//41 24//24
f 39//39 40//40 8//8
f 8//8 40//40 9//9
f 7//7 6//6 30//30
f 30//30 6//6 29//29
f 8//8 14//14 39//39
f 39//39 14//14 37//37
f 41//41 32//32 24//24
f 24//24 32//32 34//34
f 24//24 34//34 23//23
f 23//23 34//34 38//38
f 23//23 38//38 25//25
f 25//25 38//38 26//26
f 35//35 36//36 34//34
f 34//34 36//36 38//38

