# Blender 4.1.1
# www.blender.org
mtllib USB_Male_Blender_collision_0.mtl
o Cube
v -0.006000 0.012570 -0.001767
v -0.006000 0.000000 -0.001767
v 0.006000 0.000000 -0.001767
v 0.006000 0.012570 -0.001767
v -0.006000 0.000000 0.001672
v -0.006000 0.012570 0.001672
v 0.006000 0.012570 0.001672
v 0.006000 0.000000 0.001672
v -0.005478 0.000000 -0.002287
v -0.005478 0.000000 -0.001767
v -0.005478 0.000000 0.002193
v -0.005478 0.012570 0.002193
v -0.005478 0.012570 -0.001767
v -0.005478 0.012570 -0.002287
v -0.005478 0.012570 0.001672
v -0.005478 0.000000 0.001672
v 0.005478 0.012570 -0.002287
v 0.005478 0.000000 -0.002287
v 0.005478 0.000000 -0.001767
v 0.005478 0.012570 -0.001767
v 0.005478 0.012570 0.002193
v 0.005478 0.000000 0.002193
v 0.005478 0.000000 0.001672
v 0.005478 0.012570 0.001672
v 0.005478 0.000000 -0.002287
v 0.006000 0.000000 -0.001767
v 0.005613 0.000000 -0.002269
v 0.005739 0.000000 -0.002218
v 0.005847 0.000000 -0.002135
v 0.005930 0.000000 -0.002027
v 0.005982 0.000000 -0.001902
v 0.006000 0.012570 -0.001767
v 0.005478 0.012570 -0.002287
v 0.005982 0.012570 -0.001902
v 0.005930 0.012570 -0.002027
v 0.005847 0.012570 -0.002135
v 0.005739 0.012570 -0.002218
v 0.005613 0.012570 -0.002269
v 0.006000 0.000000 0.001672
v 0.005478 0.000000 0.002193
v 0.005982 0.000000 0.001807
v 0.005930 0.000000 0.001932
v 0.005847 0.000000 0.002040
v 0.005739 0.000000 0.002123
v 0.005613 0.000000 0.002175
v 0.005478 0.012570 0.002193
v 0.006000 0.012570 0.001672
v 0.005613 0.012570 0.002175
v 0.005739 0.012570 0.002123
v 0.005847 0.012570 0.002040
v 0.005930 0.012570 0.001932
v 0.005982 0.012570 0.001807
v -0.005478 0.000000 0.002193
v -0.006000 0.000000 0.001672
v -0.005613 0.000000 0.002175
v -0.005739 0.000000 0.002123
v -0.005847 0.000000 0.002040
v -0.005930 0.000000 0.001932
v -0.005982 0.000000 0.001807
v -0.006000 0.012570 0.001672
v -0.005478 0.012570 0.002193
v -0.005982 0.012570 0.001807
v -0.005930 0.012570 0.001932
v -0.005847 0.012570 0.002040
v -0.005739 0.012570 0.002123
v -0.005613 0.012570 0.002175
v -0.006000 0.000000 -0.001767
v -0.005478 0.000000 -0.002287
v -0.005982 0.000000 -0.001902
v -0.005930 0.000000 -0.002027
v -0.005847 0.000000 -0.002135
v -0.005739 0.000000 -0.002218
v -0.005613 0.000000 -0.002269
v -0.005478 0.012570 -0.002287
v -0.006000 0.012570 -0.001767
v -0.005613 0.012570 -0.002269
v -0.005739 0.012570 -0.002218
v -0.005847 0.012570 -0.002135
v -0.005930 0.012570 -0.002027
v -0.005982 0.012570 -0.001902
vn -0.0000 1.0000 -0.0000
vn -0.0000 -1.0000 -0.0000
vn -1.0000 -0.0000 -0.0000
vn 1.0000 -0.0000 -0.0000
vn -0.0000 -0.0000 -1.0000
vn -0.0000 -0.0000 1.0000
vn 0.9914 -0.0000 -0.1312
vn 0.9232 -0.0000 -0.3843
vn 0.7919 -0.0000 -0.6107
vn 0.6069 -0.0000 -0.7948
vn 0.3811 -0.0000 -0.9245
vn 0.1299 -0.0000 -0.9915
vn 0.1302 -0.0000 0.9915
vn 0.3818 -0.0000 0.9243
vn 0.6077 -0.0000 0.7942
vn 0.7925 -0.0000 0.6098
vn 0.9235 -0.0000 0.3836
vn 0.9914 -0.0000 0.1309
vn -0.1302 -0.0000 0.9915
vn -0.3819 -0.0000 0.9242
vn -0.6079 -0.0000 0.7940
vn -0.7927 -0.0000 0.6097
vn -0.9236 -0.0000 0.3834
vn -0.9914 -0.0000 0.1308
vn -0.1300 -0.0000 -0.9915
vn -0.3812 -0.0000 -0.9245
vn -0.6071 -0.0000 -0.7947
vn -0.7920 -0.0000 -0.6105
vn -0.9233 -0.0000 -0.3841
vn -0.9914 -0.0000 -0.1311
vt 0.375000 0.260875
vt 0.625000 0.260875
vt 0.625000 0.257748
vt 0.625000 0.254199
vt 0.625000 0.248306
vt 0.625000 0.236042
vt 0.625000 0.228649
vt 0.625000 0.221000
vt 0.625000 0.234398
vt 0.375000 0.489120
vt 0.374963 0.492293
vt 0.374879 0.495948
vt 0.374837 0.501894
vt 0.374879 0.514107
vt 0.374957 0.521404
vt 0.375000 0.529000
vt 0.369560 0.522298
vt 0.375000 1.000000
vt 0.375000 0.987861
vt 0.375000 0.989125
vt 0.375000 0.991931
vt 0.375000 0.994534
vt 0.375000 0.998900
vt 0.375000 0.999486
vt 0.375000 0.999866
vt 0.375000 0.221000
vt 0.625000 0.989125
vt 0.625000 0.987861
vt 0.625000 1.000000
vt 0.625000 0.999866
vt 0.625000 0.999486
vt 0.625000 0.998900
vt 0.625000 0.994534
vt 0.625000 0.991931
vt 0.369560 0.727011
vt 0.375000 0.720938
vt 0.374957 0.728546
vt 0.374879 0.735848
vt 0.374837 0.748081
vt 0.374879 0.754035
vt 0.374963 0.757702
vt 0.375000 0.760880
vt 0.375000 0.234398
vt 0.375000 0.029062
vt 0.625000 0.029062
vt 0.625000 0.529000
vt 0.625000 0.720938
vt 0.625043 0.521404
vt 0.625121 0.514107
vt 0.625163 0.501894
vt 0.625121 0.495948
vt 0.625037 0.492293
vt 0.625000 0.489120
vt 0.630440 0.522298
vt 0.630440 0.727011
vt 0.625000 0.760880
vt 0.625037 0.757702
vt 0.625121 0.754035
vt 0.625163 0.748081
vt 0.625121 0.735848
vt 0.625043 0.728546
vt 0.864125 0.529000
vt 0.864125 0.720938
vt 0.135875 0.529000
vt 0.135875 0.720939
vt 0.375000 0.257748
vt 0.375000 0.254199
vt 0.375000 0.248306
vt 0.375000 0.236042
vt 0.375000 0.228649
s 0
f 68/1/1 74/2/1 14/2/1 9/1/1
f 14/2/1 74/2/1 76/3/1 77/4/1 78/5/1 79/6/1 80/7/1 75/8/1 1/8/1 13/9/1
f 18/10/2 25/10/2 27/11/2 28/12/2 29/13/2 30/14/2 31/15/2 26/16/2 3/16/2 19/17/2
f 5/18/2 16/19/2 11/20/2 53/20/2 55/21/2 56/22/2 57/23/2 58/24/2 59/25/2 54/18/2
f 2/26/1 1/8/1 75/8/1 67/26/1
f 11/20/1 12/27/1 61/27/1 53/20/1
f 15/28/1 6/29/1 60/29/1 62/30/1 63/31/1 64/32/1 65/33/1 66/34/1 61/27/1 12/27/1
f 23/35/2 8/36/2 39/36/2 41/37/2 42/38/2 43/39/2 44/40/2 45/41/2 40/42/2 22/42/2
f 2/26/2 10/43/2 16/44/2 5/44/2
f 5/44/3 6/45/3 1/8/3 2/26/3
f 13/9/1 1/8/1 6/45/1 15/45/1
f 3/16/4 4/46/4 7/47/4 8/36/4
f 32/46/1 34/48/1 35/49/1 36/50/1 37/51/1 38/52/1 33/53/1 17/53/1 20/54/1 4/46/1
f 19/17/2 3/16/2 8/36/2 23/35/2
f 8/36/1 7/47/1 47/47/1 39/36/1
f 26/16/1 32/46/1 4/46/1 3/16/1
f 4/46/1 20/54/1 24/55/1 7/47/1
f 7/47/1 24/55/1 21/56/1 46/56/1 48/57/1 49/58/1 50/59/1 51/60/1 52/61/1 47/47/1
f 17/53/1 14/2/1 13/9/1 20/54/1
f 9/1/5 14/2/5 17/53/5 18/10/5
f 9/1/2 18/10/2 19/17/2 10/43/2
f 20/54/1 13/62/1 15/63/1 24/55/1
f 22/42/6 21/56/6 12/27/6 11/20/6
f 16/19/2 23/35/2 22/42/2 11/20/2
f 10/64/2 19/17/2 23/35/2 16/65/2
f 24/55/1 15/28/1 12/27/1 21/56/1
f 32/46/7 26/16/7 31/15/7 34/48/7
f 34/48/8 31/15/8 30/14/8 35/49/8
f 35/49/9 30/14/9 29/13/9 36/50/9
f 36/50/10 29/13/10 28/12/10 37/51/10
f 37/51/11 28/12/11 27/11/11 38/52/11
f 38/52/12 27/11/12 25/10/12 33/53/12
f 18/10/1 17/53/1 33/53/1 25/10/1
f 46/56/13 40/42/13 45/41/13 48/57/13
f 48/57/14 45/41/14 44/40/14 49/58/14
f 49/58/15 44/40/15 43/39/15 50/59/15
f 50/59/16 43/39/16 42/38/16 51/60/16
f 51/60/17 42/38/17 41/37/17 52/61/17
f 52/61/18 41/37/18 39/36/18 47/47/18
f 40/42/1 46/56/1 21/56/1 22/42/1
f 53/20/19 61/27/19 66/34/19 55/21/19
f 55/21/20 66/34/20 65/33/20 56/22/20
f 56/22/21 65/33/21 64/32/21 57/23/21
f 57/23/22 64/32/22 63/31/22 58/24/22
f 58/24/23 63/31/23 62/30/23 59/25/23
f 59/25/24 62/30/24 60/29/24 54/18/24
f 54/18/1 60/29/1 6/29/1 5/18/1
f 74/2/25 68/1/25 73/66/25 76/3/25
f 76/3/26 73/66/26 72/67/26 77/4/26
f 77/4/27 72/67/27 71/68/27 78/5/27
f 78/5/28 71/68/28 70/69/28 79/6/28
f 79/6/29 70/69/29 69/70/29 80/7/29
f 80/7/30 69/70/30 67/26/30 75/8/30
f 67/26/2 69/70/2 70/69/2 71/68/2 72/67/2 73/66/2 68/1/2 9/1/2 10/43/2 2/26/2
